{"title":"Mambattiyan (2011) - Tamil Movie - DVDrip.Xvid - 700 MB - MJY ","uid":6990276,"size":732311552,"categoryP":"video","categoryS":"movies","magnet":"?xt=urn:btih:35e6a4f75c2eea7c1e30f7789e93680eb8a785d2&amp;dn=Mambattiyan+%282011%29+-+Tamil+Movie+-+DVDrip.Xvid+-+700+MB+-+MJY+&amp;tr=udp%3A%2F%2Ftracker.openbittorrent.com%3A80&amp;tr=udp%3A%2F%2Fopen.demonii.com%3A1337&amp;tr=udp%3A%2F%2Ftracker.coppersurfer.tk%3A6969&amp;tr=udp%3A%2F%2Fexodus.desync.com%3A6969","seeders":1,"leechers":0,"uploader":"rjaa","files":-1,"time":1327679348,"description":"\nMambattiyan (2011) - Tamil Movie - DVDrip.Xvid - 700 MB - MJY \n\n\nGeneral\n\n\nComplete name                    : D:\\MJY\\UploadS\\Mambattiyan (2011)  Lotus - 1CD - XVID -\nFormat                           : AVI\nFormat/Info                      : Audio Video Interleave\nFile size                        : 698 MiB\nDuration                         : 2h 13mn\nOverall bit rate mode            : Variable\nOverall bit rate                 : 730 Kbps\nWriting application              : VirtualDubMod 1.5.4.1 (build 2178/release)\nWriting library                  : VirtualDubMod build 2178/release\n\n\n\nVideo\n\n\nID                               : 0\nFormat                           : MPEG-4 Visual\nFormat profile                   : Advanced Simple@L5\nFormat settings, BVOP            : 1\nFormat settings, QPel            : No\nFormat settings, GMC             : No warppoints\nFormat settings, Matrix          : Custom\nCodec ID                         : XVID\nCodec ID/Hint                    : XviD\nDuration                         : 2h 13mn\nBit rate                         : 611 Kbps\nWidth                            : 640 pixels\nHeight                           : 288 pixels\nDisplay aspect ratio             : 2.222\nFrame rate                       : 29.970 fps\nColor space                      : YUV\nChroma subsampling               : 4:2:0\nBit depth                        : 8 bits\nScan type                        : Progressive\nCompression mode                 : Lossy\nBits/(Pixel*Frame)               : 0.111\nStream size                      : 585 MiB (84%)\nWriting library                  : XviD 1.2.1 (UTC 2008-12-04)\n\n\n\nAudio\n\n\nID                               : 1\nFormat                           : MPEG Audio\nFormat version                   : Version 1\nFormat profile                   : Layer 3\nMode                             : Joint stereo\nMode extension                   : MS Stereo\nCodec ID                         : 55\nCodec ID/Hint                    : MP3\nDuration                         : 2h 13mn\nBit rate mode                    : Variable\nBit rate                         : 105 Kbps\nNominal bit rate                 : 128 Kbps\nChannel(s)                       : 2 channels\nSampling rate                    : 48.0 KHz\nCompression mode                 : Lossy\nStream size                      : 100 MiB (14%)\n\n &lt;a href=&quot;\nhttp://img210.imageshack.us/img210/4976/mambattiyan.jpg&quot; rel=&quot;nofollow&quot; target=&quot;_NEW&quot;&gt;\nhttp://img210.imageshack.us/img210/4976/mambattiyan.jpg&lt;/a&gt;\n\n\nCREDITS TO LOKESH CENA @ MJY","torrent":{"xt":"urn:btih:35e6a4f75c2eea7c1e30f7789e93680eb8a785d2","amp;dn":"Mambattiyan+%282011%29+-+Tamil+Movie+-+DVDrip.Xvid+-+700+MB+-+MJY+","amp;tr":["udp%3A%2F%2Ftracker.openbittorrent.com%3A80","udp%3A%2F%2Fopen.demonii.com%3A1337","udp%3A%2F%2Ftracker.coppersurfer.tk%3A6969","udp%3A%2F%2Fexodus.desync.com%3A6969"],"infoHash":"35e6a4f75c2eea7c1e30f7789e93680eb8a785d2","infoHashBuffer":{"type":"Buffer","data":[53,230,164,247,92,46,234,124,30,48,247,120,158,147,104,14,184,167,133,210]},"announce":[],"urlList":[]}}